<?xml version="1.0" encoding="UTF-8"?>
<svg width="60px" height="19px" viewBox="0 0 60 19" version="1.1" xmlns="http://www.w3.org/2000/svg" xmlns:xlink="http://www.w3.org/1999/xlink">
    <title>logo/夸克云</title>
    <g id="logo/夸克云" stroke="none" stroke-width="1" fill="none" fill-rule="evenodd">
        <path d="M49.5720311,5.827526 L57.7885898,5.827526 C57.8572704,5.827526 57.912953,5.77285993 57.912953,5.70543319 L57.912953,4.27734115 C57.912953,4.20991441 57.8572704,4.15524834 57.7885898,4.15524834 L49.5720311,4.15524834 C49.5033506,4.15524834 49.4476679,4.20991441 49.4476679,4.27734115 L49.4476679,5.70543319 C49.4476679,5.77285993 49.5033506,5.827526 49.5720311,5.827526 M58.8756368,8.15510335 L48.4849681,8.15510335 C48.4162875,8.15510335 48.3606049,8.20976942 48.3606049,8.27719616 L48.3606049,9.7052882 C48.3606049,9.77271494 48.4162875,9.82738101 48.4849681,9.82738101 L51.1451378,9.82738101 L49.7328529,14.535201 C49.7292423,14.544102 49.7263539,14.5534756 49.7244283,14.5634005 L49.2970199,15.9881055 C49.2683762,16.0837317 49.3413895,16.1795943 49.4429662,16.1795943 L49.8369971,16.1795943 L51.0567196,16.1795943 L56.7107537,16.1795943 L56.7987707,16.4663155 C56.8177863,16.5298037 56.8772399,16.5734421 56.9446368,16.5734421 L58.5584704,16.5734421 C58.6599668,16.5734421 58.7330603,16.4775795 58.7043364,16.3819533 L57.2232907,11.5585783 C57.2041949,11.4950113 57.1448215,11.4514517 57.0773444,11.4514517 L55.463591,11.4514517 C55.3620143,11.4514517 55.2890011,11.5472355 55.317725,11.6428617 L56.1859408,14.4705312 L51.6831893,14.4705312 L53.0760576,9.82738101 L58.8756368,9.82738101 C58.9443174,9.82738101 59,9.77271494 59,9.7052882 L59,8.27719616 C59,8.20976942 58.9443174,8.15510335 58.8756368,8.15510335 M27.9802306,7.53893638 C28.6083853,7.04323957 29.1638477,6.43852569 29.6470189,5.72495228 L30.3112791,5.72495228 C30.7459888,6.48822928 31.2050897,7.09278562 31.6881005,7.53893638 L27.9802306,7.53893638 Z M35.0916414,7.47387273 C33.936668,7.26292786 32.9003612,6.439786 32.4253739,5.72495228 L34.8982766,5.72495228 C34.9663956,5.72495228 35.0215968,5.67075883 35.0215968,5.60388348 L35.0215968,4.21060758 C35.0215968,4.14373223 34.9663956,4.08946 34.8982766,4.08946 L30.5528647,4.08946 C30.576935,4.03999272 30.609109,3.96075055 30.6493866,3.85149718 C30.7223196,3.6793857 30.7791256,3.54138143 30.8199648,3.43701177 C30.8220509,3.43283699 30.825501,3.42929236 30.8272662,3.42511757 L30.8709939,3.32255961 C30.9211403,3.19810371 30.9149623,3.1440678 30.7816931,3.1440678 L28.9354205,3.1440678 C28.8793367,3.1440678 28.828067,3.17518177 28.8030339,3.22441274 L28.7321869,3.36367732 C28.6060585,3.62440455 28.4763196,3.86677847 28.342569,4.08946 L24.8788523,4.08946 C24.8107333,4.08946 24.7554518,4.14373223 24.7554518,4.21060758 L24.7554518,5.60388348 C24.7554518,5.67075883 24.8107333,5.72495228 24.8788523,5.72495228 L27.2416735,5.72495228 C26.6878158,6.44640264 25.7943261,7.01653669 24.583991,7.48749986 C24.5276665,7.5093978 24.4897959,7.56264602 24.4897959,7.62211703 L24.4897959,9.12448876 C24.4897959,9.20806326 24.5731594,9.26847951 24.6543566,9.24358833 C25.4358391,9.00389257 26.1538562,8.70299287 26.8086487,8.34159815 L26.8086487,8.97529922 C26.8086487,9.04319858 26.8647325,9.09833727 26.9339748,9.09833727 L32.9397562,9.09833727 C33.0089985,9.09833727 33.0650823,9.04319858 33.0650823,8.97529922 L33.0650823,8.47550639 C33.6527989,8.76317281 34.3181021,8.99002913 35.0612326,9.15591782 C35.1395413,9.17340466 35.2148813,9.11409118 35.2148813,9.03524286 L35.2148813,7.61660316 C35.2148813,7.54578933 35.1625685,7.48679093 35.0916414,7.47387273 L35.0916414,7.47387273 Z M39.6466094,10.6100905 L44.9355772,10.6100905 L44.9355772,8.79760298 L39.6466094,8.79760298 L39.6466094,10.6100905 Z M47.6621007,14.8982263 L46.1791293,14.8986201 L45.112173,14.8986201 L45.112173,12.222267 L46.735394,12.222267 C46.803513,12.222267 46.8587142,12.1679947 46.8587142,12.1011194 L46.8587142,7.30625899 C46.8587142,7.23938364 46.803513,7.18519018 46.735394,7.18519018 L43.3094677,7.18519018 L43.3094677,5.94023736 L47.5051623,5.94023736 C47.5732813,5.94023736 47.6284825,5.8860439 47.6284825,5.81916855 L47.6284825,4.3890285 C47.6284825,4.32215315 47.5732813,4.26795969 47.5051623,4.26795969 L43.3094677,4.26795969 L43.3094677,4.0037666 L43.3094677,3.34816759 C43.3094677,3.28129224 43.2542665,3.22709879 43.1861475,3.22709879 L41.4414517,3.22709879 C41.3733327,3.22709879 41.3180512,3.28129224 41.3180512,3.34816759 L41.3180512,4.0037666 L41.3180512,4.26795969 L37.1583016,4.26795969 C37.0901826,4.26795969 37.0349012,4.32215315 37.0349012,4.3890285 L37.0349012,5.81916855 C37.0349012,5.8860439 37.0901826,5.94023736 37.1583016,5.94023736 L41.3180512,5.94023736 L41.3180512,7.18519018 L37.8467123,7.18519018 C37.7785933,7.18519018 37.7233921,7.23938364 37.7233921,7.30625899 L37.7233921,12.1011194 C37.7233921,12.1679947 37.7785933,12.222267 37.8467123,12.222267 L39.6429186,12.222267 C39.6429186,13.7414166 38.3767404,14.6910624 37.0340186,14.9665983 C36.9646961,14.9808556 36.9142287,15.0388299 36.9142287,15.1083047 L36.9142287,16.7478142 C36.9142287,16.8231967 36.9827489,16.8822739 37.058811,16.87164 C39.7773913,16.4908679 41.4595846,14.6943707 41.5996738,12.222267 L43.1563003,12.222267 L43.1563003,16.4373834 C43.1563003,16.5317493 43.2342079,16.6082346 43.3303286,16.6082346 L47.6621007,16.6082346 C47.7302197,16.6082346 47.7855011,16.5540411 47.7855011,16.4871658 L47.7855011,15.0193739 C47.7855011,14.9524197 47.7302197,14.8982263 47.6621007,14.8982263 L47.6621007,14.8982263 Z M35.0310645,10.0021234 L24.6371864,10.0021234 C24.5690675,10.0021234 24.5138662,10.0563169 24.5138662,10.1231922 L24.5138662,11.5163893 C24.5138662,11.5832647 24.5690675,11.6374581 24.6371864,11.6374581 L26.475275,11.6374581 L25.7091173,14.2214146 C25.6861702,14.2989239 25.7453832,14.3763544 25.8275432,14.3763544 L32.078601,14.3763544 L31.4153037,16.602382 C31.3921962,16.6798912 31.4514091,16.7574793 31.5337296,16.7574793 L33.2398327,16.7574793 C33.3053842,16.7574793 33.3631529,16.7151012 33.3817672,16.6532671 L34.5218973,12.8604343 C34.5452455,12.7828462 34.4860325,12.7050219 34.4036319,12.7050219 L28.0914354,12.7050219 L28.4060343,11.6374581 L35.0310645,11.6374581 C35.0991834,11.6374581 35.1544649,11.5832647 35.1544649,11.5163893 L35.1544649,10.123271 C35.1544649,10.0563956 35.0991834,10.0021234 35.0310645,10.0021234" id="形状结合" fill="#242830"></path>
        <path d="M11.8489796,1.025 C15.3673303,1.025 18.2239796,3.84937077 18.2239796,7.33898305 C18.2239796,7.87746068 17.7874572,8.31398305 17.2489796,8.31398305 C16.710502,8.31398305 16.2739796,7.87746068 16.2739796,7.33898305 C16.2739796,4.9313175 14.2953042,2.975 11.8489796,2.975 C9.40265501,2.975 7.42397959,4.9313175 7.42397959,7.33898305 C7.42397959,9.7466486 9.40265501,11.7029661 11.8489796,11.7029661 C12.3874572,11.7029661 12.8239796,12.1394885 12.8239796,12.6779661 C12.8239796,13.2164437 12.3874572,13.6529661 11.8489796,13.6529661 C8.33062888,13.6529661 5.47397959,10.8285953 5.47397959,7.33898305 C5.47397959,3.84937077 8.33062888,1.025 11.8489796,1.025 Z" id="路径" fill="#242830" fill-rule="nonzero"></path>
        <path d="M6.00021513,5.79563805 C6.52823977,5.69005329 7.04188167,6.03250847 7.14746644,6.5605331 C7.2530512,7.08855774 6.91059602,7.60219965 6.38257139,7.70778441 C4.41184596,8.10185424 2.975,9.81941659 2.975,11.8244552 C2.975,14.1418563 4.87966534,16.025 7.23469388,16.025 L16.8897959,16.025 C17.4282735,16.025 17.8647959,16.4615224 17.8647959,17 C17.8647959,17.5384776 17.4282735,17.975 16.8897959,17.975 L7.23469388,17.975 C3.80763922,17.975 1.025,15.223803 1.025,11.8244552 C1.025,8.88166124 3.125817,6.37040792 6.00021513,5.79563805 Z" id="形状" fill="#242830" fill-rule="nonzero"></path>
        <path d="M18.978136,8.78487244 C20.7359087,8.78487244 22.3662056,9.57947328 23.4612606,10.9217109 C24.1050653,11.7108391 24.535814,12.6570906 24.7040879,13.6740149 C24.7919963,14.2052684 24.432594,14.7071983 23.9013405,14.7951066 C23.370087,14.883015 22.8681572,14.5236127 22.7802488,13.9923592 C22.6678399,13.3130424 22.3803681,12.6815359 21.9503134,12.1544065 C21.2210413,11.2605187 20.1425635,10.7348724 18.978136,10.7348724 C16.8512932,10.7348724 15.1226275,12.4832943 15.1226275,14.6455867 C15.1226275,15.1840644 14.6861052,15.6205867 14.1476275,15.6205867 C13.6091499,15.6205867 13.1726275,15.1840644 13.1726275,14.6455867 C13.1726275,11.4112682 15.7693465,8.78487244 18.978136,8.78487244 Z" id="路径" fill="#242830" fill-rule="nonzero" transform="translate(18.944973, 12.202730) scale(1, -1) rotate(-270.000000) translate(-18.944973, -12.202730) "></path>
        <path d="M13.5163265,8.75163438 C16.7251161,8.75163438 19.321835,11.3780301 19.321835,14.6123487 C19.321835,15.1508263 18.8853126,15.5873487 18.346835,15.5873487 C17.8083574,15.5873487 17.371835,15.1508263 17.371835,14.6123487 C17.371835,12.4500562 15.6431693,10.7016344 13.5163265,10.7016344 C11.3894837,10.7016344 9.66081806,12.4500562 9.66081806,14.6123487 C9.66081806,15.1508263 9.22429569,15.5873487 8.68581806,15.5873487 C8.14734042,15.5873487 7.71081806,15.1508263 7.71081806,14.6123487 C7.71081806,11.3780301 10.307537,8.75163438 13.5163265,8.75163438 Z" id="路径备份-2" fill="#242830" fill-rule="nonzero" transform="translate(13.516327, 12.169492) scale(1, -1) rotate(-270.000000) translate(-13.516327, -12.169492) "></path>
    </g>
</svg>